<svg xmlns="http://www.w3.org/2000/svg" width="363" height="386" viewBox="0 0 363 386"><g fill="none" fill-rule="evenodd"><g transform="translate(51 72)"><path fill="#000" fill-rule="nonzero" d="M205.92,20.19 C206.344626,20.2521324 206.761553,20.0364051 206.95611,19.6538934 C207.150667,19.2713816 207.079471,18.8073803 206.77918,18.5007976 C206.478889,18.194215 206.016463,18.1134148 205.63,18.3 L201.84,18.89 L201.73,18.17 L205.52,17.58 C205.915658,17.3889755 206.140286,16.9620751 206.073651,16.5277996 C206.007016,16.093524 205.664729,15.7536106 205.23,15.69 L201.43,16.29 L200.62,11.06 L189.24,0.78 L40.17,274.78 L51.59,282.5 L238.33,253.4 L236.25,240 L240.04,239.41 C240.467582,239.479403 240.891231,239.265619 241.089418,238.880438 C241.287605,238.495256 241.215262,238.026269 240.910216,237.718714 C240.605171,237.411159 240.136792,237.334975 239.75,237.53 L235.95,238.12 L235.84,237.39 L239.64,236.8 C239.88873,236.763104 240.112309,236.628093 240.260764,236.425142 C240.409218,236.222191 240.470172,235.968222 240.43,235.72 C240.329299,235.210894 239.855877,234.863429 239.34,234.92 L235.55,235.51 L234.45,228.46 L238.25,227.87 C238.628101,227.677363 238.84345,227.267071 238.78722,226.846468 C238.730989,226.425865 238.415425,226.08655 238,226 L234.21,226.59 L234.1,225.87 L237.89,225.28 C238.285658,225.088976 238.510286,224.662075 238.443651,224.2278 C238.377016,223.793524 238.034729,223.453611 237.6,223.39 L233.8,223.98 L232.71,216.98 L236.5,216.38 C236.749971,216.345715 236.975284,216.211335 237.124247,216.00769 C237.27321,215.804045 237.333036,215.548614 237.29,215.3 C237.189581,214.795097 236.722252,214.448928 236.21,214.5 L232.41,215.09 L232.3,214.37 L236.09,213.78 C236.485658,213.588976 236.710286,213.162075 236.643651,212.7278 C236.577016,212.293524 236.234729,211.953611 235.8,211.89 L232.01,212.48 L230.91,205.48 L234.7,204.89 C235.095658,204.698976 235.320286,204.272075 235.253651,203.8378 C235.187016,203.403524 234.844729,203.063611 234.41,203 L230.62,203.59 L230.5,202.87 L234.3,202.28 C234.805078,202.174847 235.147262,201.70272 235.09,201.19 C235.055715,200.940029 234.921335,200.714716 234.71769,200.565753 C234.514045,200.41679 234.258614,200.356964 234.01,200.4 L230.21,200.99 L229.12,193.99 L232.91,193.4 C233.415078,193.294847 233.757262,192.82272 233.7,192.31 C233.665715,192.060029 233.531335,191.834716 233.32769,191.685753 C233.124045,191.53679 232.868614,191.476964 232.62,191.52 L228.82,192.11 L228.71,191.38 L232.5,190.79 C232.927582,190.859403 233.351231,190.645619 233.549418,190.260438 C233.747605,189.875256 233.675262,189.406269 233.370216,189.098714 C233.065171,188.791159 232.596792,188.714975 232.21,188.91 L228.42,189.5 L227.32,182.45 L231.11,181.86 C231.537582,181.929403 231.961231,181.715619 232.159418,181.330438 C232.357605,180.945256 232.285262,180.476269 231.980216,180.168714 C231.675171,179.861159 231.206792,179.784975 230.82,179.98 L227.03,180.57 L226.91,179.84 L230.71,179.25 C231.137492,179.31601 231.558965,179.099678 231.754545,178.713861 C231.950126,178.328043 231.875472,177.860213 231.569529,177.554425 C231.263586,177.248638 230.795718,177.174223 230.41,177.37 L226.62,177.96 L225.52,170.91 L229.32,170.32 C229.747492,170.38601 230.168965,170.169678 230.364545,169.783861 C230.560126,169.398043 230.485472,168.930213 230.179529,168.624425 C229.873586,168.318638 229.405718,168.244223 229.02,168.44 L225.23,169.03 L225.12,168.3 L228.91,167.71 C229.414903,167.609581 229.761072,167.142252 229.71,166.63 C229.609299,166.120894 229.135877,165.773429 228.62,165.83 L224.82,166.42 L223.73,159.42 L227.52,158.83 C228.024903,158.729581 228.371072,158.262252 228.32,157.75 C228.219299,157.240894 227.745877,156.893429 227.23,156.95 L223.44,157.54 L223.32,156.82 L227.12,156.23 C227.516053,156.037551 227.739614,155.608686 227.670583,155.173796 C227.601553,154.738906 227.256179,154.400349 226.82,154.34 L223.03,154.93 L221.93,147.93 L225.73,147.34 C226.126053,147.147551 226.349614,146.718686 226.280583,146.283796 C226.211553,145.848906 225.866179,145.510349 225.43,145.45 L221.64,146.04 L221.53,145.32 L225.32,144.73 C225.715658,144.538976 225.940286,144.112075 225.873651,143.6778 C225.807016,143.243524 225.464729,142.903611 225.03,142.84 L221.23,143.44 L220.14,136.44 L223.93,135.85 C224.325658,135.658976 224.550286,135.232075 224.483651,134.7978 C224.417016,134.363524 224.074729,134.023611 223.64,133.96 L219.84,134.55 L219.73,133.83 L223.52,133.24 C223.947582,133.309403 224.371231,133.095619 224.569418,132.710438 C224.767605,132.325256 224.695262,131.856269 224.390216,131.548714 C224.085171,131.241159 223.616792,131.164975 223.23,131.36 L219.44,131.95 L218.34,124.9 L222.13,124.31 C222.557582,124.379403 222.981231,124.165619 223.179418,123.780438 C223.377605,123.395256 223.305262,122.926269 223.000216,122.618714 C222.695171,122.311159 222.226792,122.234975 221.84,122.43 L218.05,123.02 L217.94,122.29 L221.73,121.7 C222.116901,121.504921 222.33415,121.082864 222.268092,120.654629 C222.202035,120.226395 221.867702,119.889423 221.44,119.82 L217.64,120.41 L216.55,113.41 L220.34,112.82 C220.726901,112.624921 220.94415,112.202864 220.878092,111.774629 C220.812035,111.346395 220.477702,111.009423 220.05,110.94 L216.25,111.53 L216.14,110.8 L219.93,110.21 C220.434903,110.109581 220.781072,109.642252 220.73,109.13 C220.629299,108.620894 220.155877,108.273429 219.64,108.33 L215.85,108.92 L214.75,101.87 L218.54,101.28 C218.967582,101.349403 219.391231,101.135619 219.589418,100.750438 C219.787605,100.365256 219.715262,99.8962694 219.410216,99.5887144 C219.105171,99.2811593 218.636792,99.2049755 218.25,99.4 L214.46,99.99 L214.34,99.27 L218.14,98.68 C218.536053,98.4875509 218.759614,98.0586861 218.690583,97.6237963 C218.621553,97.1889065 218.276179,96.8503488 217.84,96.79 L214.05,97.38 L212.95,90.38 L216.75,89.78 C217.136901,89.5849206 217.35415,89.1628638 217.288092,88.7346294 C217.222035,88.3063949 216.887702,87.9694226 216.46,87.9 L212.66,88.49 L212.55,87.77 L216.34,87.18 C216.735658,86.9889755 216.960286,86.5620751 216.893651,86.1277996 C216.827016,85.693524 216.484729,85.3536106 216.05,85.29 L212.26,85.88 L211.16,78.88 L214.95,78.29 C215.374626,78.3521324 215.791553,78.1364051 215.98611,77.7538934 C216.180667,77.3713816 216.109471,76.9073803 215.80918,76.6007976 C215.508889,76.294215 215.046463,76.2134148 214.66,76.4 L210.87,76.99 L210.75,76.27 L214.55,75.68 C214.977492,75.7460096 215.398965,75.5296781 215.594545,75.1438605 C215.790126,74.7580429 215.715472,74.2902127 215.409529,73.9844255 C215.103586,73.6786382 214.635718,73.6042229 214.25,73.8 L210.46,74.39 L209.36,67.39 L213.16,66.8 C213.547207,66.6034673 213.76333,66.1795097 213.694904,65.7507069 C213.626478,65.321904 213.289142,64.9862643 212.86,64.92 L209.07,65.51 L208.96,64.78 L212.75,64.19 C213.177582,64.2594031 213.601231,64.0456191 213.799418,63.6604378 C213.997605,63.2752564 213.925262,62.8062694 213.620216,62.4987144 C213.315171,62.1911593 212.846792,62.1149755 212.46,62.31 L208.66,62.9 L207.57,55.85 L211.36,55.26 C211.787582,55.3294031 212.211231,55.1156191 212.409418,54.7304378 C212.607605,54.3452564 212.535262,53.8762694 212.230216,53.5687144 C211.925171,53.2611593 211.456792,53.1849755 211.07,53.38 L207.27,53.97 L207.16,53.24 L210.96,52.65 C211.347207,52.4534673 211.56333,52.0295097 211.494904,51.6007069 C211.426478,51.171904 211.089142,50.8362643 210.66,50.77 L206.87,51.36 L205.77,44.31 L209.57,43.72 C209.957207,43.5234673 210.17333,43.0995097 210.104904,42.6707069 C210.036478,42.241904 209.699142,41.9062643 209.27,41.84 L205.48,42.43 L205.37,41.7 L209.16,41.11 C209.664903,41.0095814 210.011072,40.5422521 209.96,40.03 C209.859299,39.5208944 209.385877,39.1734289 208.87,39.23 L205.07,39.82 L203.98,32.77 L207.77,32.18 C208.274903,32.0795814 208.621072,31.6122521 208.57,31.1 C208.469299,30.5908944 207.995877,30.2434289 207.48,30.3 L203.68,30.89 L203.57,30.17 L207.36,29.58 C207.755658,29.3889755 207.980286,28.9620751 207.913651,28.5277996 C207.847016,28.093524 207.504729,27.7536106 207.07,27.69 L203.28,28.28 L202.18,21.28 L205.92,20.19 Z" opacity=".3"/><path fill="#263238" fill-rule="nonzero" stroke="#263238" stroke-linecap="round" d="M46.2,277.39 L219.35,250.45 L180.71,2.1 L7.55,29.1 C5.4294298,29.4298559 3.52681514,30.5887725 2.2608795,32.3216977 C0.994943862,34.0546229 0.469432908,36.2195405 0.8,38.34 L37,270.64 C37.6823931,275.040924 41.7971584,278.059909 46.2,277.39 Z"/><path fill="#FFF" fill-rule="nonzero" stroke="#263238" stroke-linecap="round" d="M34.694569,241.948178 L44.694569,241.948178 C46.1581236,241.948178 47.344569,243.134623 47.344569,244.598178 L47.344569,267.198178 C47.344569,268.661733 46.1581236,269.848178 44.694569,269.848178 L34.694569,269.848178 L34.694569,241.948178 L34.694569,241.948178 Z" transform="rotate(171.15 41.02 255.898)"/><path fill="#D70057" fill-rule="nonzero" stroke="#263238" stroke-linecap="round" d="M30.1909337,212.969182 L40.1909337,212.969182 C41.6544882,212.969182 42.8409337,214.155628 42.8409337,215.619182 L42.8409337,238.219182 C42.8409337,239.682737 41.6544882,240.869182 40.1909337,240.869182 L30.1909337,240.869182 L30.1909337,212.969182 Z" transform="rotate(171.15 36.516 226.92)"/><path fill="#FFF" fill-rule="nonzero" stroke="#263238" stroke-linecap="round" d="M25.6696059,183.940782 L35.6696059,183.940782 C37.1331605,183.940782 38.3196059,185.127227 38.3196059,186.590782 L38.3196059,209.190782 C38.3196059,210.654336 37.1331605,211.840782 35.6696059,211.840782 L25.6696059,211.840782 L25.6696059,183.940782 Z" transform="rotate(171.15 31.995 197.89)"/><path fill="#D70057" fill-rule="nonzero" stroke="#263238" stroke-linecap="round" d="M21.167509,154.971667 L31.167509,154.971667 C32.6310636,154.971667 33.817509,156.158112 33.817509,157.621667 L33.817509,180.221667 C33.817509,181.685222 32.6310636,182.871667 31.167509,182.871667 L21.167509,182.871667 L21.167509,154.971667 Z" transform="rotate(171.15 27.493 168.922)"/><path fill="#FFF" fill-rule="nonzero" stroke="#263238" stroke-linecap="round" d="M17.24,126.72 L23.15,125.8 L8.08,29 L189.24,0.81 L227.88,249.15 L46.73,277.31 L27.44,153.37 L21.53,154.29 C20.0920459,154.505133 18.750815,153.517092 18.53,152.08 L15,129.75 C14.8912394,129.050562 15.0668227,128.336683 15.4876112,127.767491 C15.9083997,127.1983 16.5394154,126.82111 17.24,126.72 Z"/><polygon fill="#D70057" fill-rule="nonzero" points="36.61 81.88 37.21 95.45 104.81 84.42 103.04 73.06"/><path fill="#263238" fill-rule="nonzero" stroke="#263238" stroke-linecap="round" d="M179.17,16 C179.374354,17.4218235 180.417636,18.579205 181.810702,18.9295048 C183.203768,19.2798046 184.670412,18.753568 185.522996,17.5975218 C186.37558,16.4414756 186.445061,14.8848313 185.698862,13.6574234 C184.952663,12.4300156 183.538735,11.7752048 182.12,12 C180.208623,12.302853 178.894686,14.0844628 179.17,16 L179.17,16 Z"/><path fill="#FFF" fill-rule="nonzero" stroke="#263238" stroke-linecap="round" d="M183 14.9 193.58 13.25C194.085078 13.144847 194.427262 12.6727203 194.37 12.16L194.37 12.16C194.264847 11.6549219 193.79272 11.3127384 193.28 11.37L182.74 13C182.230894 13.1007014 181.883429 13.5741231 181.94 14.09L181.94 14.09C182.035297 14.5906688 182.491881 14.9395681 183 14.9ZM183.44 17.5 194 15.86C194.509106 15.7592986 194.856571 15.2858769 194.8 14.77L194.8 14.77C194.699299 14.2608944 194.225877 13.9134289 193.71 13.97L183.13 15.62C182.624922 15.725153 182.282738 16.1972797 182.34 16.71L182.34 16.71C182.44542 17.21933 182.923681 17.562808 183.44 17.5Z"/><path fill="#263238" fill-rule="nonzero" stroke="#263238" stroke-linecap="round" d="M181,27.53 C181.200813,28.9484646 182.236764,30.1060581 183.624327,30.4624791 C185.011891,30.8189002 186.477484,30.3038742 187.33705,29.1577872 C188.196615,28.0117002 188.280674,26.4605229 187.549992,25.2282601 C186.81931,23.9959972 185.417954,23.3256106 184,23.53 C182.068361,23.808434 180.726438,25.5976653 181,27.53 Z"/><path fill="#FFF" fill-rule="nonzero" stroke="#263238" stroke-linecap="round" d="M184.83 26.43 195.4 24.79C195.909106 24.6892986 196.256571 24.2158769 196.2 23.7L196.2 23.7C196.099299 23.1908944 195.625877 22.8434289 195.11 22.9L184.53 24.55C184.024922 24.655153 183.682738 25.1272797 183.74 25.64L183.74 25.64C183.845153 26.1450781 184.31728 26.4872616 184.83 26.43L184.83 26.43ZM185.23 29 195.81 27.36C196.315078 27.254847 196.657262 26.7827203 196.6 26.27L196.6 26.27C196.499299 25.7608944 196.025877 25.4134289 195.51 25.47L184.94 27.12C184.430894 27.2207014 184.083429 27.6941231 184.14 28.21L184.14 28.21C184.245153 28.7150781 184.71728 29.0572616 185.23 29Z"/><path fill="#263238" fill-rule="nonzero" stroke="#263238" stroke-linecap="round" d="M182.76,39.07 C182.964354,40.4918235 184.007636,41.649205 185.400702,41.9995048 C186.793768,42.3498046 188.260412,41.823568 189.112996,40.6675218 C189.96558,39.5114756 190.035061,37.9548313 189.288862,36.7274234 C188.542663,35.5000156 187.128735,34.8452048 185.71,35.07 C183.798623,35.372853 182.484686,37.1544628 182.76,39.07 Z"/><path fill="#FFF" fill-rule="nonzero" stroke="#263238" stroke-linecap="round" d="M186.62 38 197.2 36.36C197.705078 36.254847 198.047262 35.7827203 197.99 35.27L197.99 35.27C197.889299 34.7608944 197.415877 34.4134289 196.9 34.47L186.33 36.12C185.820894 36.2207014 185.473429 36.6941231 185.53 37.21L185.53 37.21C185.635153 37.7150781 186.10728 38.0572616 186.62 38ZM187 40.58 197.57 38.93C198.074903 38.8295814 198.421072 38.3622521 198.37 37.85L198.37 37.85C198.269299 37.3408944 197.795877 36.9934289 197.28 37.05L186.71 38.7C186.205097 38.8004186 185.858928 39.2677479 185.91 39.78L185.91 39.78C186.010701 40.2891056 186.484123 40.6365711 187 40.58Z"/><path fill="#263238" fill-rule="nonzero" stroke="#263238" stroke-linecap="round" d="M184.55,50.61 C184.750813,52.0284646 185.786764,53.1860581 187.174327,53.5424791 C188.561891,53.8989002 190.027484,53.3838742 190.88705,52.2377872 C191.746615,51.0917002 191.830674,49.5405229 191.099992,48.3082601 C190.36931,47.0759972 188.967954,46.4056106 187.55,46.61 C185.618361,46.888434 184.276438,48.6776653 184.55,50.61 L184.55,50.61 Z"/><path fill="#FFF" fill-rule="nonzero" stroke="#263238" stroke-linecap="round" d="M188.42 49.51 199 47.86C199.504903 47.7595814 199.851072 47.2922521 199.8 46.78L199.8 46.78C199.699299 46.2708944 199.225877 45.9234289 198.71 45.98L188.13 47.63C187.88127 47.6668956 187.657691 47.8019072 187.509236 48.0048581 187.360782 48.207809 187.299828 48.4617781 187.34 48.71L187.34 48.71C187.440419 49.2149026 187.907748 49.5610725 188.42 49.51ZM188.82 52.12 199.4 50.47C199.650775 50.4332507 199.876084 50.2967897 200.024822 50.0915685 200.173561 49.8863473 200.233123 49.6297583 200.19 49.38L200.19 49.38C200.153104 49.13127 200.018093 48.9076913 199.815142 48.7592364 199.612191 48.6107816 199.358222 48.5498282 199.11 48.59L188.53 50.23C188.024922 50.335153 187.682738 50.8072797 187.74 51.32L187.74 51.32C187.840419 51.8249026 188.307748 52.1710725 188.82 52.12Z"/><path fill="#263238" fill-rule="nonzero" stroke="#263238" stroke-linecap="round" d="M186.35,62.15 C186.554354,63.5718235 187.597636,64.729205 188.990702,65.0795048 C190.383768,65.4298046 191.850412,64.903568 192.702996,63.7475218 C193.55558,62.5914756 193.625061,61.0348313 192.878862,59.8074234 C192.132663,58.5800156 190.718735,57.9252048 189.3,58.15 C187.388623,58.452853 186.074686,60.2344628 186.35,62.15 L186.35,62.15 Z"/><path fill="#FFF" fill-rule="nonzero" stroke="#263238" stroke-linecap="round" d="M190.21 61.05 200.79 59.4C201.295078 59.294847 201.637262 58.8227203 201.58 58.31L201.58 58.31C201.543104 58.06127 201.408093 57.8376913 201.205142 57.6892364 201.002191 57.5407816 200.748222 57.4798282 200.5 57.52L189.92 59.16C189.414922 59.265153 189.072738 59.7372797 189.13 60.25L189.13 60.25C189.230419 60.7549026 189.697748 61.1010725 190.21 61.05ZM190.62 63.66 201.19 62C201.699106 61.8992986 202.046571 61.4258769 201.99 60.91L201.99 60.91C201.884847 60.4049219 201.41272 60.0627384 200.9 60.12L190.33 61.76C189.820894 61.8607014 189.473429 62.3341231 189.53 62.85L189.53 62.85C189.62619 63.3631344 190.100932 63.7159243 190.62 63.66Z"/><path fill="#263238" fill-rule="nonzero" stroke="#263238" stroke-linecap="round" d="M188.14,73.69 C188.440129,75.6156032 190.240212,76.9364592 192.16715,76.6450226 C194.094088,76.353586 195.423054,74.5594822 195.140316,72.6312486 C194.857578,70.7030151 193.06949,69.3659666 191.14,69.64 C190.202238,69.7731845 189.35696,70.2766159 188.793177,71.0377234 C188.229393,71.7988309 187.994132,72.7541267 188.14,73.69 Z"/><path fill="#FFF" fill-rule="nonzero" stroke="#263238" stroke-linecap="round" d="M192 72.59 202.57 70.94C203.079106 70.8392986 203.426571 70.3658769 203.37 69.85L203.37 69.85C203.264847 69.3449219 202.79272 69.0027384 202.28 69.06L191.71 70.7C191.200894 70.8007014 190.853429 71.2741231 190.91 71.79L190.91 71.79C191.010701 72.2991056 191.484123 72.6465711 192 72.59ZM192.42 75.19 203 73.55C203.509106 73.4492986 203.856571 72.9758769 203.8 72.46L203.8 72.46C203.699299 71.9508944 203.225877 71.6034289 202.71 71.66L192.13 73.31C191.624922 73.415153 191.282738 73.8872797 191.34 74.4L191.34 74.4C191.444836 74.9008798 191.910894 75.2417924 192.42 75.19Z"/><path fill="#263238" fill-rule="nonzero" stroke="#263238" stroke-linecap="round" d="M189.94,85.22 C190.144354,86.6418235 191.187636,87.799205 192.580702,88.1495048 C193.973768,88.4998046 195.440412,87.973568 196.292996,86.8175218 C197.14558,85.6614756 197.215061,84.1048313 196.468862,82.8774234 C195.722663,81.6500156 194.308735,80.9952048 192.89,81.22 C190.978623,81.522853 189.664686,83.3044628 189.94,85.22 L189.94,85.22 Z"/><path fill="#FFF" fill-rule="nonzero" stroke="#263238" stroke-linecap="round" d="M193.8 84.12 204.38 82.48C204.889106 82.3792986 205.236571 81.9058769 205.18 81.39L205.18 81.39C205.074847 80.8849219 204.60272 80.5427384 204.09 80.6L193.51 82.24C193.004922 82.345153 192.662738 82.8172797 192.72 83.33L192.72 83.33C192.754285 83.5799715 192.888665 83.8052842 193.09231 83.9542469 193.295955 84.1032095 193.551386 84.1630357 193.8 84.12L193.8 84.12ZM194.21 86.73 204.79 85.09C205.295078 84.984847 205.637262 84.5127203 205.58 84L205.58 84C205.479299 83.4908944 205.005877 83.1434289 204.49 83.2L193.92 84.85C193.410894 84.9507014 193.063429 85.4241231 193.12 85.94L193.12 85.94C193.225153 86.4450781 193.69728 86.7872616 194.21 86.73Z"/><path fill="#263238" fill-rule="nonzero" stroke="#263238" stroke-linecap="round" d="M191.74,96.76 C191.944354,98.1818235 192.987636,99.339205 194.380702,99.6895048 C195.773768,100.039805 197.240412,99.513568 198.092996,98.3575218 C198.94558,97.2014756 199.015061,95.6448313 198.268862,94.4174234 C197.522663,93.1900156 196.108735,92.5352048 194.69,92.76 C192.778623,93.062853 191.464686,94.8444628 191.74,96.76 L191.74,96.76 Z"/><path fill="#FFF" fill-rule="nonzero" stroke="#263238" stroke-linecap="round" d="M195.6 95.66 206.18 94C206.685078 93.894847 207.027262 93.4227203 206.97 92.91L206.97 92.91C206.869299 92.4008944 206.395877 92.0534289 205.88 92.11L195.31 93.76C194.800894 93.8607014 194.453429 94.3341231 194.51 94.85L194.51 94.85C194.60619 95.3631344 195.080932 95.7159243 195.6 95.66ZM196 98.27 206.57 96.62C207.074903 96.5195814 207.421072 96.0522521 207.37 95.54L207.37 95.54C207.269299 95.0308944 206.795877 94.6834289 206.28 94.74L195.7 96.39C195.194922 96.495153 194.852738 96.9672797 194.91 97.48L194.91 97.48C195.015153 97.9850781 195.48728 98.3272616 196 98.27Z"/><path fill="#263238" fill-rule="nonzero" stroke="#263238" stroke-linecap="round" d="M193.53,108.3 C193.730813,109.718465 194.766764,110.876058 196.154327,111.232479 C197.541891,111.5889 199.007484,111.073874 199.86705,109.927787 C200.726615,108.7817 200.810674,107.230523 200.079992,105.99826 C199.34931,104.765997 197.947954,104.095611 196.53,104.3 C194.598361,104.578434 193.256438,106.367665 193.53,108.3 Z"/><path fill="#FFF" fill-rule="nonzero" stroke="#263238" stroke-linecap="round" d="M197.4 107.2 208 105.56C208.509106 105.459299 208.856571 104.985877 208.8 104.47L208.8 104.47C208.699299 103.960894 208.225877 103.613429 207.71 103.67L197.13 105.32C196.624922 105.425153 196.282738 105.89728 196.34 106.41L196.34 106.41C196.444059 106.902641 196.898168 107.241081 197.4 107.2L197.4 107.2ZM197.8 109.81 208.38 108.16C208.885078 108.054847 209.227262 107.58272 209.17 107.07L209.17 107.07C209.064847 106.564922 208.59272 106.222738 208.08 106.28L197.51 107.93C197.005097 108.030419 196.658928 108.497748 196.71 109.01L196.71 109.01C196.810701 109.519106 197.284123 109.866571 197.8 109.81Z"/><path fill="#263238" fill-rule="nonzero" stroke="#263238" stroke-linecap="round" d="M195.33,119.84 C195.534354,121.261823 196.577636,122.419205 197.970702,122.769505 C199.363768,123.119805 200.830412,122.593568 201.682996,121.437522 C202.53558,120.281476 202.605061,118.724831 201.858862,117.497423 C201.112663,116.270016 199.698735,115.615205 198.28,115.84 C196.368623,116.142853 195.054686,117.924463 195.33,119.84 L195.33,119.84 Z"/><path fill="#FFF" fill-rule="nonzero" stroke="#263238" stroke-linecap="round" d="M199.19 118.74 209.77 117.09C210.275078 116.984847 210.617262 116.51272 210.56 116L210.56 116C210.454847 115.494922 209.98272 115.152738 209.47 115.21L198.9 116.86C198.395097 116.960419 198.048928 117.427748 198.1 117.94L198.1 117.94C198.200701 118.449106 198.674123 118.796571 199.19 118.74ZM199.6 121.35 210.17 119.7C210.679106 119.599299 211.026571 119.125877 210.97 118.61L210.97 118.61C210.864847 118.104922 210.39272 117.762738 209.88 117.82L199.3 119.46C198.794922 119.565153 198.452738 120.03728 198.51 120.55L198.51 120.55C198.610701 121.059106 199.084123 121.406571 199.6 121.35Z"/><path fill="#263238" fill-rule="nonzero" stroke="#263238" stroke-linecap="round" d="M197.12,131.38 C197.420129,133.305603 199.220212,134.626459 201.14715,134.335023 C203.074088,134.043586 204.403054,132.249482 204.120316,130.321249 C203.837578,128.393015 202.04949,127.055967 200.12,127.33 C199.182238,127.463185 198.33696,127.966616 197.773177,128.727723 C197.209393,129.488831 196.974132,130.444127 197.12,131.38 Z"/><path fill="#FFF" fill-rule="nonzero" stroke="#263238" stroke-linecap="round" d="M201 130.28 211.57 128.63C212.079106 128.529299 212.426571 128.055877 212.37 127.54L212.37 127.54C212.264847 127.034922 211.79272 126.692738 211.28 126.75L200.7 128.39C200.194922 128.495153 199.852738 128.96728 199.91 129.48L199.91 129.48C200.010701 129.989106 200.484123 130.336571 201 130.28ZM201.39 132.88 212 131.24C212.505078 131.134847 212.847262 130.66272 212.79 130.15L212.79 130.15C212.755715 129.900029 212.621335 129.674716 212.41769 129.525753 212.214045 129.37679 211.958614 129.316964 211.71 129.36L201.1 131C200.590894 131.100701 200.243429 131.574123 200.3 132.09L200.3 132.09C200.405153 132.595078 200.87728 132.937262 201.39 132.88Z"/><path fill="#263238" fill-rule="nonzero" stroke="#263238" stroke-linecap="round" d="M198.92,142.91 C199.124354,144.331823 200.167636,145.489205 201.560702,145.839505 C202.953768,146.189805 204.420412,145.663568 205.272996,144.507522 C206.12558,143.351476 206.195061,141.794831 205.448862,140.567423 C204.702663,139.340016 203.288735,138.685205 201.87,138.91 C199.958623,139.212853 198.644686,140.994463 198.92,142.91 Z"/><path fill="#FFF" fill-rule="nonzero" stroke="#263238" stroke-linecap="round" d="M202.78 141.82 213.36 140.17C213.865078 140.064847 214.207262 139.59272 214.15 139.08L214.15 139.08C214.045164 138.57912 213.579106 138.238208 213.07 138.29L202.49 139.93C201.980894 140.030701 201.633429 140.504123 201.69 141.02L201.69 141.02C201.790701 141.529106 202.264123 141.876571 202.78 141.82ZM203.19 144.42 213.76 142.78C214.269106 142.679299 214.616571 142.205877 214.56 141.69L214.56 141.69C214.459299 141.180894 213.985877 140.833429 213.47 140.89L202.9 142.54C202.390894 142.640701 202.043429 143.114123 202.1 143.63L202.1 143.63C202.205153 144.135078 202.67728 144.477262 203.19 144.42Z"/><path fill="#263238" fill-rule="nonzero" stroke="#263238" stroke-linecap="round" d="M200.71,154.45 C200.910813,155.868465 201.946764,157.026058 203.334327,157.382479 C204.721891,157.7389 206.187484,157.223874 207.04705,156.077787 C207.906615,154.9317 207.990674,153.380523 207.259992,152.14826 C206.52931,150.915997 205.127954,150.245611 203.71,150.45 C201.781384,150.733524 200.442171,152.519142 200.71,154.45 L200.71,154.45 Z"/><path fill="#FFF" fill-rule="nonzero" stroke="#263238" stroke-linecap="round" d="M204.58 153.35 215.15 151.71C215.659106 151.609299 216.006571 151.135877 215.95 150.62L215.95 150.62C215.849299 150.110894 215.375877 149.763429 214.86 149.82L204.29 151.47C203.780894 151.570701 203.433429 152.044123 203.49 152.56L203.49 152.56C203.595153 153.065078 204.06728 153.407262 204.58 153.35ZM205 156 215.58 154.36C216.085078 154.254847 216.427262 153.78272 216.37 153.27L216.37 153.27C216.269581 152.765097 215.802252 152.418928 215.29 152.47L204.71 154.12C204.204922 154.225153 203.862738 154.69728 203.92 155.21L203.92 155.21C203.956896 155.45873 204.091907 155.682309 204.294858 155.830764 204.497809 155.979218 204.751778 156.040172 205 156Z"/><path fill="#263238" fill-rule="nonzero" stroke="#263238" stroke-linecap="round" d="M202.51,166 C202.714354,167.421823 203.757636,168.579205 205.150702,168.929505 C206.543768,169.279805 208.010412,168.753568 208.862996,167.597522 C209.71558,166.441476 209.785061,164.884831 209.038862,163.657423 C208.292663,162.430016 206.878735,161.775205 205.46,162 C203.548623,162.302853 202.234686,164.084463 202.51,166 L202.51,166 Z"/><path fill="#FFF" fill-rule="nonzero" stroke="#263238" stroke-linecap="round" d="M206.37 164.89 217 163.25C217.250775 163.213251 217.476084 163.07679 217.624822 162.871569 217.773561 162.666347 217.833123 162.409758 217.79 162.16L217.79 162.16C217.689581 161.655097 217.222252 161.308928 216.71 161.36L206.08 163C205.829225 163.036749 205.603916 163.17321 205.455178 163.378431 205.306439 163.583653 205.246877 163.840242 205.29 164.09L205.29 164.09C205.324481 164.340557 205.458475 164.566648 205.66171 164.717192 205.864944 164.867736 206.120269 164.93003 206.37 164.89L206.37 164.89ZM206.78 167.5 217.35 165.85C217.600557 165.815519 217.826648 165.681525 217.977192 165.47829 218.127736 165.275056 218.19003 165.019731 218.15 164.77L218.15 164.77C218.049299 164.260894 217.575877 163.913429 217.06 163.97L206.49 165.62C205.985097 165.720419 205.638928 166.187748 205.69 166.7L205.69 166.7C205.790701 167.209106 206.264123 167.556571 206.78 167.5Z"/><path fill="#263238" fill-rule="nonzero" stroke="#263238" stroke-linecap="round" d="M204.3,177.53 C204.500813,178.948465 205.536764,180.106058 206.924327,180.462479 C208.311891,180.8189 209.777484,180.303874 210.63705,179.157787 C211.496615,178.0117 211.580674,176.460523 210.849992,175.22826 C210.11931,173.995997 208.717954,173.325611 207.3,173.53 C205.371384,173.813524 204.032171,175.599142 204.3,177.53 Z"/><path fill="#FFF" fill-rule="nonzero" stroke="#263238" stroke-linecap="round" d="M208.17 176.43 218.74 174.78C219.244903 174.679581 219.591072 174.212252 219.54 173.7L219.54 173.7C219.439299 173.190894 218.965877 172.843429 218.45 172.9L207.88 174.55C207.375097 174.650419 207.028928 175.117748 207.08 175.63L207.08 175.63C207.180701 176.139106 207.654123 176.486571 208.17 176.43ZM208.58 179 219.15 177.35C219.659106 177.249299 220.006571 176.775877 219.95 176.26L219.95 176.26C219.844847 175.754922 219.37272 175.412738 218.86 175.47L208.28 177.11C207.774922 177.215153 207.432738 177.68728 207.49 178.2L207.49 178.2C207.590701 178.709106 208.064123 179.056571 208.58 179L208.58 179Z"/><path fill="#263238" fill-rule="nonzero" stroke="#263238" stroke-linecap="round" d="M206.1,189.07 C206.304354,190.491823 207.347636,191.649205 208.740702,191.999505 C210.133768,192.349805 211.600412,191.823568 212.452996,190.667522 C213.30558,189.511476 213.375061,187.954831 212.628862,186.727423 C211.882663,185.500016 210.468735,184.845205 209.05,185.07 C207.138623,185.372853 205.824686,187.154463 206.1,189.07 Z"/><path fill="#FFF" fill-rule="nonzero" stroke="#263238" stroke-linecap="round" d="M210 188 220.57 186.35C221.079106 186.249299 221.426571 185.775877 221.37 185.26L221.37 185.26C221.264847 184.754922 220.79272 184.412738 220.28 184.47L209.7 186.11C209.194922 186.215153 208.852738 186.68728 208.91 187.2L208.91 187.2C209.010701 187.709106 209.484123 188.056571 210 188ZM210.37 190.58 221 188.93C221.505078 188.824847 221.847262 188.35272 221.79 187.84L221.79 187.84C221.684847 187.334922 221.21272 186.992738 220.7 187.05L210.13 188.69C209.620894 188.790701 209.273429 189.264123 209.33 189.78L209.33 189.78C209.428807 190.268612 209.872391 190.60983 210.37 190.58Z"/><path fill="#263238" fill-rule="nonzero" stroke="#263238" stroke-linecap="round" d="M207.9,200.61 C208.200129,202.535603 210.000212,203.856459 211.92715,203.565023 C213.854088,203.273586 215.183054,201.479482 214.900316,199.551249 C214.617578,197.623015 212.82949,196.285967 210.9,196.56 C209.962238,196.693185 209.11696,197.196616 208.553177,197.957723 C207.989393,198.718831 207.754132,199.674127 207.9,200.61 Z"/><path fill="#FFF" fill-rule="nonzero" stroke="#263238" stroke-linecap="round" d="M211.76 199.51 222.34 197.86C222.845078 197.754847 223.187262 197.28272 223.13 196.77L223.13 196.77C223.015079 196.255671 222.52072 195.918806 222 196L211.43 197.64C210.920894 197.740701 210.573429 198.214123 210.63 198.73L210.63 198.73C210.740447 199.248371 211.236148 199.590536 211.76 199.51ZM212.17 202.11 222.74 200.47C223.249106 200.369299 223.596571 199.895877 223.54 199.38L223.54 199.38C223.439299 198.870894 222.965877 198.523429 222.45 198.58L211.87 200.23C211.364922 200.335153 211.022738 200.80728 211.08 201.32L211.08 201.32C211.185153 201.825078 211.65728 202.167262 212.17 202.11Z"/><path fill="#263238" fill-rule="nonzero" stroke="#263238" stroke-linecap="round" d="M209.69,212.14 C209.894354,213.561823 210.937636,214.719205 212.330702,215.069505 C213.723768,215.419805 215.190412,214.893568 216.042996,213.737522 C216.89558,212.581476 216.965061,211.024831 216.218862,209.797423 C215.472663,208.570016 214.058735,207.915205 212.64,208.14 C210.728623,208.442853 209.414686,210.224463 209.69,212.14 Z"/><path fill="#FFF" fill-rule="nonzero" stroke="#263238" stroke-linecap="round" d="M213.56 211 224.13 209.36C224.639106 209.259299 224.986571 208.785877 224.93 208.27L224.93 208.27C224.893251 208.019225 224.75679 207.793916 224.551569 207.645178 224.346347 207.496439 224.089758 207.436877 223.84 207.48L213.26 209.12C212.754922 209.225153 212.412738 209.69728 212.47 210.21L212.47 210.21C212.506749 210.460775 212.64321 210.686084 212.848431 210.834822 213.053653 210.983561 213.310242 211.043123 213.56 211ZM214 213.65 224.54 212C225.045078 211.894847 225.387262 211.42272 225.33 210.91L225.33 210.91C225.229299 210.400894 224.755877 210.053429 224.24 210.11L213.67 211.76C213.160894 211.860701 212.813429 212.334123 212.87 212.85L212.87 212.85C212.971319 213.376462 213.469783 213.729357 214 213.65Z"/><path fill="#263238" fill-rule="nonzero" stroke="#263238" stroke-linecap="round" d="M211.49,223.68 C211.694354,225.101823 212.737636,226.259205 214.130702,226.609505 C215.523768,226.959805 216.990412,226.433568 217.842996,225.277522 C218.69558,224.121476 218.765061,222.564831 218.018862,221.337423 C217.272663,220.110016 215.858735,219.455205 214.44,219.68 C212.528623,219.982853 211.214686,221.764463 211.49,223.68 Z"/><path fill="#FFF" fill-rule="nonzero" stroke="#263238" stroke-linecap="round" d="M215.35 222.58 225.93 220.94C226.435078 220.834847 226.777262 220.36272 226.72 219.85L226.72 219.85C226.619299 219.340894 226.145877 218.993429 225.63 219.05L215.06 220.7C214.550894 220.800701 214.203429 221.274123 214.26 221.79L214.26 221.79C214.365153 222.295078 214.83728 222.637262 215.35 222.58L215.35 222.58ZM215.76 225.19 226.33 223.54C226.834903 223.439581 227.181072 222.972252 227.13 222.46L227.13 222.46C227.029299 221.950894 226.555877 221.603429 226.04 221.66L215.46 223.31C214.954922 223.415153 214.612738 223.88728 214.67 224.4L214.67 224.4C214.775153 224.905078 215.24728 225.247262 215.76 225.19L215.76 225.19Z"/><path fill="#263238" fill-rule="nonzero" stroke="#263238" stroke-linecap="round" d="M213.28,235.22 C213.480813,236.638465 214.516764,237.796058 215.904327,238.152479 C217.291891,238.5089 218.757484,237.993874 219.61705,236.847787 C220.476615,235.7017 220.560674,234.150523 219.829992,232.91826 C219.09931,231.685997 217.697954,231.015611 216.28,231.22 C214.348361,231.498434 213.006438,233.287665 213.28,235.22 Z"/><path fill="#FFF" fill-rule="nonzero" stroke="#263238" stroke-linecap="round" d="M217.15 234.12 227.72 232.48C228.229106 232.379299 228.576571 231.905877 228.52 231.39L228.52 231.39C228.419299 230.880894 227.945877 230.533429 227.43 230.59L216.85 232.24C216.344922 232.345153 216.002738 232.81728 216.06 233.33L216.06 233.33C216.165153 233.835078 216.63728 234.177262 217.15 234.12ZM217.55 236.73 228.13 235.08C228.635078 234.974847 228.977262 234.50272 228.92 233.99L228.92 233.99C228.883104 233.74127 228.748093 233.517691 228.545142 233.369236 228.342191 233.220782 228.088222 233.159828 227.84 233.2L217.26 234.85C217.010029 234.884285 216.784716 235.018665 216.635753 235.22231 216.48679 235.425955 216.426964 235.681386 216.47 235.93L216.47 235.93C216.570419 236.434903 217.037748 236.781072 217.55 236.73L217.55 236.73Z"/><g stroke="#000" stroke-linecap="round" opacity=".3" transform="translate(28 30)"><line x1="34.08" x2="36.71" y1="9.51" y2="9.11"/><line x1="39.34" x2="41.97" y1="8.7" y2="8.29"/><line x1="8.38" x2="11" y1="17.22" y2="16.81"/><line x1="13.63" x2="16.26" y1="16.4" y2="15.99"/><line x1="18.89" x2="21.51" y1="15.59" y2="15.18"/><line x1="24.14" x2="26.77" y1="14.77" y2="14.36"/><line x1="29.39" x2="32.02" y1="13.95" y2="13.54"/><line x1="34.65" x2="37.27" y1="13.13" y2="12.72"/><line x1="39.9" x2="42.53" y1="12.31" y2="11.91"/><line x1="8.94" x2="11.57" y1="20.84" y2="20.43"/><line x1="14.19" x2="16.82" y1="20.02" y2="19.61"/><line x1="19.45" x2="22.08" y1="19.2" y2="18.8"/><line x1="24.7" x2="27.33" y1="18.39" y2="17.98"/><line x1="29.96" x2="32.58" y1="17.57" y2="17.16"/><line x1="35.21" x2="37.84" y1="16.75" y2="16.34"/><line x1="40.46" x2="43.09" y1="15.93" y2="15.52"/><line x1="9.5" x2="12.13" y1="24.46" y2="24.05"/><line x1="14.76" x2="17.38" y1="23.64" y2="23.23"/><line x1="20.01" x2="22.64" y1="22.82" y2="22.41"/><line x1="25.27" x2="27.89" y1="22.01" y2="21.6"/><line x1="30.52" x2="33.15" y1="21.19" y2="20.78"/><line x1="35.77" x2="38.4" y1="20.37" y2="19.96"/><line x1="41.03" x2="43.65" y1="19.55" y2="19.14"/><line x1="10.07" x2="12.69" y1="28.08" y2="27.67"/><line x1="15.32" x2="17.95" y1="27.26" y2="26.85"/><line x1="20.57" x2="23.2" y1="26.44" y2="26.03"/><line x1="25.83" x2="28.46" y1="25.62" y2="25.22"/><line x1="31.08" x2="33.71" y1="24.81" y2="24.4"/><line x1="36.34" x2="38.96" y1="23.99" y2="23.58"/><line x1="41.59" x2="44.22" y1="23.17" y2="22.76"/><line x1="7.07" x2="9.7" y1="8.85" y2="8.44"/><line x1="12.33" x2="14.96" y1="8.03" y2="7.63"/><line x1="17.58" x2="20.21" y1="7.22" y2="6.81"/><line x1="22.84" x2="25.46" y1="6.4" y2="5.99"/><line x1="28.09" x2="30.72" y1="5.58" y2="5.17"/><line x1="33.35" x2="35.97" y1="4.76" y2="4.36"/><line x1="38.6" x2="41.23" y1="3.95" y2="3.54"/><line x1="41.77" x2="7.17" y1="5.54" y2="10.92"/><line x1="16.77" x2="30.12" y1="2.71" y2=".63"/><line x1=".19" x2="147.42" y1="40.03" y2="17.12"/><line x1="2.04" x2="149.26" y1="51.89" y2="28.98"/><line x1="3.88" x2="151.11" y1="63.74" y2="40.83"/><line x1="5.73" x2="152.95" y1="75.6" y2="52.69"/><line x1="7.57" x2="154.8" y1="87.46" y2="64.55"/><line x1="9.42" x2="156.64" y1="99.32" y2="76.4"/><line x1="11.26" x2="158.49" y1="111.17" y2="88.26"/><line x1="13.11" x2="160.33" y1="123.03" y2="100.12"/><line x1="14.95" x2="162.18" y1="134.89" y2="111.98"/><line x1="16.8" x2="164.02" y1="146.75" y2="123.83"/><line x1="18.64" x2="165.87" y1="158.6" y2="135.69"/><line x1="20.49" x2="167.72" y1="170.46" y2="147.55"/><line x1="22.33" x2="169.56" y1="182.32" y2="159.41"/><line x1="26.72" x2="173.94" y1="210.48" y2="187.57"/><line x1="28.18" x2="175.4" y1="219.87" y2="196.95"/><line x1="29.64" x2="176.86" y1="229.25" y2="206.34"/></g><path stroke="#263238" stroke-linecap="round" d="M49.19 81.44C49.19 81.44 36.63 95.03 43.89 92.89 51.15 90.75 61.08 76.55 58.97 82.45 56.86 88.35 56.97 92.37 60.38 88.3 63.79 84.23 65.7 83.42 65.01 85.55 64.32 87.68 67.14 86.23 67.14 86.23 67.14 86.23 74.14 82.11 73.41 84.23 72.68 86.35 72.24 86.44 74.22 86.13L80.64 85.13C80.64 85.13 80.22 85.71 86.15 84.78 92.08 83.85 94.39 82.49 97.36 82.03M43.49 100C43.49 100 53.17 93.94 54.39 95.27 55.61 96.6 53.94 98.88 58.31 97.7 62.68 96.52 66.66 92.86 66.97 94.83 67.28 96.8 70.09 95.36 70.09 95.36L72.56 94.97C72.56 94.97 77.08 94.78 78.49 94.05 79.9 93.32 81.36 86.52 80.28 95.8 79.2 105.08 75.41 97.06 84.42 93.13 93.43 89.2 95.1 93.49 95.1 93.49 96.0973836 93.2646849 97.0666582 92.9292958 97.99 92.49 99.88 91.68 101.55 89.4 103.34 91.15 105.13 92.9 108.34 87.34 108.34 87.34 109.589069 87.5730467 110.821667 87.887042 112.03 88.28 113.187759 88.6845075 114.418367 88.8379075 115.64 88.73 117.149604 88.7879628 118.661415 88.7210684 120.16 88.53 122.16 88.22 123.81 85.94 125.44 86.7 127.07 87.46 129.54 80.49 128.3 88.78 127.06 97.07 119.04 100.85 122.3 95.78 125.177482 91.3515767 128.873584 87.5129252 133.19 84.47 136.84 81.88 137.9 82.22 138.7 84.12 139.5 86.02 140.49 85.86 142.39 85.06 144.29 84.26 142.66 83.5 144.29 84.26 145.385936 84.8831209 146.68463 85.045008 147.9 84.71 149.39 84.48 142.44 88.6 149.39 84.48 156.34 80.36 158.82 63.78 155.18 72.95 151.54 82.12 152.92 84.44 157.79 83.17"/><path stroke="#263238" stroke-linecap="round" d="M44.54 116.57C44.54 116.57 56.42 105.11 55.69 103.7 54.96 102.29 51.17 103.9 48.4 108.88 45.63 113.86 47.58 116.6 55.03 112.41 62.48 108.22 51.64 113.41 59.29 113.77 66.94 114.13 69.2 109.19 69.43 110.67 69.66 112.15 67.11 112.04 73.12 111.67 79.13 111.3 76.19 108.67 82.35 109.22 88.51 109.77 91.25 107.83 91.25 107.83L95.2 107.22C95.2 107.22 87.2 107.95 97.59 106.34 107.98 104.73 112.54 91.87 107.54 98.72 102.54 105.57 104.89 107.72 110.02 104.91L115.15 102.09C115.15 102.09 121.63 95.01 118.57 104.59 115.51 114.17 111.89 107.15 123.28 102.34 134.67 97.53 134.38 102.13 138.18 100.53 141.98 98.93 141.36 94.97 143.88 98.12 146.4 101.27 146.24 100.29 150.19 99.67 154.14 99.05 153.08 98.67 156.54 98.18L164 97M46.54 152.19C46.54 152.19 54.82 146.85 56.14 139.05 57.46 131.25 50.93 141.38 51.64 152.4 52.35 163.42 48.47 148.34 60.02 144.52 71.57 140.7 59.02 147.72 60.3 149.52 61.58 151.32 71.05 143.8 70.94 146.34 70.83 148.88 72.94 149.57 78.76 144.62 84.58 139.67 75.11 140.62 74.66 144.25 74.21 147.88 77.02 146.41 84.2 143.77 91.38 141.13 84.35 144.77 88.8 144.07 93.25 143.37 103.04 134.77 101.11 138.61 99.18 142.45 101.04 144.7 103.2 142.34 105.36 139.98 109.96 133.69 110.34 136.16 110.568969 137.618598 110.252093 139.11041 109.45 140.35"/></g><g transform="translate(0 125)"><path fill="#000" fill-rule="nonzero" d="M51.13,5.09 C50.9369397,4.8857121 50.7297628,4.695243 50.51,4.52 C49.8755309,4.02572054 49.1797502,3.61564688 48.44,3.3 L48,3.14 L47.89,3.14 C43.95,1.92 30.48,1.34 25.96,1.14 C23.6385339,1.05923799 21.5671877,2.5878915 20.96,4.83 L20.96,4.94 C20,8.61 6.3,99.15 6.3,99.15 C6.3,99.15 6.2,101.15 6.06,104.28 C6,105.65 5.94,107.28 5.86,108.93 C5.86,109.36 5.86,109.79 5.86,110.23 C5.86,111.11 5.79,112.01 5.75,112.92 C5.62,116.13 5.5,119.51 5.41,122.6 C5.34,124.8 5.29,126.86 5.26,128.6 C5.26,129.99 5.26,131.17 5.26,132.07 C5.24844092,134.165188 5.36532678,136.259115 5.61,138.34 C6,140.92 6.9,142.11 9.12,142.5 C9.67,142.6 10.47,142.72 11.44,142.84 L12.04,142.91 L14.79,143.21 L15.55,143.28 L17.9,143.47 L19.52,143.57 L21.15,143.65 C22.22,143.7 23.28,143.72 24.29,143.72 C25.7607511,143.741668 27.2311688,143.658122 28.69,143.47 L28.69,143.47 L28.82,143.47 L29.19,143.4 L29.19,143.4 L29.6,143.3 L29.68,143.3 L30.09,143.17 L30.78,142.91 L31.41,142.65 C32.2586277,142.310578 33.066919,141.877924 33.82,141.36 C34.063406,141.186285 34.297091,140.999337 34.52,140.8 C34.7333333,140.613333 34.9333333,140.413333 35.12,140.2 L35.38,139.89 C35.7443867,139.432326 36.0784337,138.951299 36.38,138.45 L36.38,138.45 C36.4297691,138.371718 36.470052,138.287796 36.5,138.2 L36.56,138.05 L36.66,137.79 C36.6821738,137.711844 36.7088858,137.635047 36.74,137.56 C36.74,137.45 36.8,137.36 36.84,137.24 L36.93,136.96 C36.93,136.83 37,136.71 37.04,136.57 C37.08,136.43 37.11,136.35 37.14,136.24 C37.17,136.13 37.22,135.94 37.27,135.78 C37.32,135.62 37.34,135.51 37.38,135.38 C37.42,135.25 37.46,135.06 37.51,134.88 C37.56,134.7 37.59,134.58 37.63,134.43 C37.67,134.28 37.72,134.07 37.77,133.87 L37.89,133.4 L38.04,132.79 C38.04,132.62 38.13,132.43 38.18,132.25 L38.33,131.61 C38.38,131.43 38.42,131.23 38.47,131.04 C38.52,130.85 38.58,130.59 38.63,130.36 L38.78,129.75 C38.78,129.52 38.89,129.29 38.94,129.05 C38.99,128.81 39.04,128.61 39.1,128.39 C39.16,128.17 39.21,127.91 39.26,127.66 C39.2645987,127.590076 39.2645987,127.519924 39.26,127.45 C39.26,127.31 39.33,127.17 39.36,127.03 C39.39,126.89 39.48,126.49 39.55,126.21 C39.62,125.93 39.64,125.79 39.69,125.57 C39.74,125.35 39.81,125.02 39.88,124.74 L40.03,124.08 L40.21,123.25 C40.21,123.01 40.32,122.76 40.37,122.52 L40.55,121.73 C40.55,121.48 40.66,121.22 40.71,120.97 L40.89,120.18 C40.89,120.06 40.89,119.94 40.96,119.82 C41.03,119.7 41.03,119.54 41.06,119.4 C41.09,119.26 41.17,118.88 41.22,118.62 C41.27,118.36 41.33,118.11 41.39,117.85 C41.45,117.59 41.5,117.31 41.56,117.05 C41.62,116.79 41.67,116.53 41.73,116.27 C41.79,116.01 41.83,115.77 41.89,115.52 C41.95,115.27 42,114.97 42.06,114.69 L42.21,113.97 C42.27,113.71 42.32,113.46 42.37,113.21 C42.42,112.96 42.48,112.68 42.54,112.42 L42.69,111.67 C42.69,111.44 42.79,111.21 42.83,110.98 C42.87,110.75 42.9,110.64 42.94,110.47 L43,110.18 C43,109.96 43.09,109.74 43.13,109.52 C43.17,109.3 43.24,109.02 43.29,108.77 C43.34,108.52 43.37,108.34 43.42,108.13 L43.57,107.36 C43.57,107.19 43.64,107.01 43.67,106.84 L43.79,106.26 C43.79,106.19 43.79,106.12 43.79,106.04 C43.79,105.96 43.86,105.71 43.89,105.54 L44.04,104.81 L44.13,104.31 C44.18,104.08 44.22,103.85 44.26,103.64 L44.35,103.2 L44.47,102.53 C44.47,102.41 44.47,102.3 44.54,102.19 L44.66,101.54 L44.72,101.22 C44.72,101.02 44.79,100.83 44.82,100.65 L44.82,100.65 L44.82,100.65 C44.82,100.41 44.9,100.17 44.94,99.96 C45.11,98.96 45.34,96.75 45.62,93.66 C45.73,92.5 45.84,91.22 45.96,89.82 C46.39,84.72 46.89,78.16 47.42,70.96 C47.42,70.31 47.51,69.65 47.56,68.96 C49.56,41.74 51.78,6.81 51.78,6.81 C51.8059336,6.17218089 51.5712815,5.55125529 51.13,5.09 L51.13,5.09 Z" opacity=".3"/><path fill="#D70057" fill-rule="nonzero" d="M1.63,98.15 C1.63,98.15 0.4,123.91 0.54,131.05 C0.68,138.19 0.85,140.86 4.39,141.49 C7.93,142.12 21.59,143.49 25.39,142.11 C29.19,140.73 30.39,139.51 31.67,137.4 C32.95,135.29 38.97,106.83 40.33,98.84 C41.69,90.85 47.18,5.72 47.18,5.72 C47.18,5.72 47.39,3.91 43.74,2.3 C40.74,0.95 26.02,0.3 21.26,0.14 C18.9230633,0.0342666591 16.8251917,1.5630127 16.21,3.82 C16.21,3.82 16.21,3.9 16.21,3.93 C15.3,7.6 1.63,98.15 1.63,98.15 Z"/><path fill="#000" fill-rule="nonzero" d="M23.37,142.53 C24.0504508,142.466389 24.7214421,142.325481 25.37,142.11 C29.21,140.73 30.37,139.51 31.65,137.4 C32.93,135.29 38.95,106.83 40.31,98.84 C41.67,90.85 47.16,5.72 47.16,5.72 C47.16,5.72 47.37,3.91 43.72,2.3 C43.3673176,2.15244916 43.0026535,2.03535516 42.63,1.95 C41.84,21.7 39.17,45.15 34.48,73.01 C30.1,99.37 25.13,131.23 23.37,142.53 Z" opacity=".5"/><path stroke="#263238" stroke-linecap="round" stroke-linejoin="round" d="M1.63,98.15 C1.63,98.15 0.4,123.91 0.54,131.05 C0.68,138.19 0.85,140.86 4.39,141.49 C7.93,142.12 21.59,143.49 25.39,142.11 C29.19,140.73 30.39,139.51 31.67,137.4 C32.95,135.29 38.97,106.83 40.33,98.84 C41.69,90.85 47.18,5.72 47.18,5.72 C47.18,5.72 47.39,3.91 43.74,2.3 C40.74,0.95 26.02,0.3 21.26,0.14 C18.9230633,0.0342666591 16.8251917,1.5630127 16.21,3.82 C16.21,3.82 16.21,3.9 16.21,3.93 C15.3,7.6 1.63,98.15 1.63,98.15 Z"/><path fill="#263238" fill-rule="nonzero" d="M29.57,101.14 C25.3,101.14 6.91,99.2 4.06,98.59 C3.2487597,98.4212999 2.44752379,98.207637 1.66,97.95 L1.66,98.15 C1.66,98.15 0.43,123.91 0.57,131.05 C0.71,138.19 0.88,140.86 4.42,141.49 C7.96,142.12 21.62,143.49 25.42,142.11 C29.22,140.73 30.42,139.51 31.7,137.4 C32.98,135.29 38.7,108.4 40.24,99.54 C36.64,101.41 33.08,101.11 29.57,101.14 Z"/><g transform="translate(3 1)"><path fill="#000" fill-rule="nonzero" d="M20.37,141.53 C21.0504508,141.466389 21.7214421,141.325481 22.37,141.11 C26.21,139.73 27.37,138.51 28.65,136.4 C29.93,134.29 35.95,105.83 37.31,97.84 C38.67,89.85 44.16,4.72 44.16,4.72 C44.16,4.72 44.37,2.91 40.72,1.3 C40.3673176,1.15244916 40.0026535,1.03535516 39.63,0.95 C38.84,20.7 36.17,44.15 31.48,72.01 C27.1,98.37 22.13,130.23 20.37,141.53 Z" opacity=".5"/><path stroke="#FFF" stroke-linecap="round" stroke-linejoin="round" d="M26.61,102.52 C29.4186444,102.400245 32.2055035,101.970981 34.92,101.24" opacity=".26"/><path stroke="#FFF" stroke-linecap="round" stroke-linejoin="round" d="M0.09,99.57 C0.09,99.57 22.66,102.66 26.61,102.52"/></g><path stroke="#263238" stroke-linecap="round" stroke-linejoin="round" d="M29.57,101.14 C25.3,101.14 6.91,99.2 4.06,98.59 C3.2487597,98.4212999 2.44752379,98.207637 1.66,97.95 L1.66,98.15 C1.66,98.15 0.43,123.91 0.57,131.05 C0.71,138.19 0.88,140.86 4.42,141.49 C7.96,142.12 21.62,143.49 25.42,142.11 C29.22,140.73 30.42,139.51 31.7,137.4 C32.98,135.29 38.7,108.4 40.24,99.54 C36.64,101.41 33.08,101.11 29.57,101.14 Z"/></g><g transform="translate(230)"><circle cx="73.858" cy="82.456" r="42.91" fill="#263238" fill-rule="nonzero" stroke="#263238" stroke-linecap="round" stroke-linejoin="round" transform="rotate(-27.51 73.858 82.456)"/><circle cx="70.65" cy="78.197" r="42.91" fill="#FFF" fill-rule="nonzero" stroke="#263238" stroke-linecap="round" stroke-linejoin="round" transform="rotate(-82.91 70.65 78.197)"/><circle cx="70.657" cy="78.203" r="38.65" fill="#263238" fill-rule="nonzero" stroke="#263238" stroke-linecap="round" stroke-linejoin="round" transform="rotate(-80.67 70.657 78.203)"/><path fill="#D70057" fill-rule="nonzero" d="M66.13,49.15 C66.13,49.15 61.87,38.49 54.4,31 C46.93,23.51 16.56,18.74 16.56,18.74 C21.4643857,23.4742568 25.9231489,28.6493679 29.88,34.2 C36.81,43.79 59.74,65.65 59.74,65.65 C59.74,65.65 48.54,56.05 38.41,54.99 C28.28,53.93 2.7,59.25 1.1,59.25 C-0.5,59.25 10.69,63.52 18.69,67.25 C26.69,70.98 57.6,74.18 57.6,74.18 C57.6,74.18 44.28,77.91 35.21,81.11 C26.14,84.31 17.62,107.76 17.62,107.76 C17.62,107.76 29.35,97.1 39.48,94.43 C49.61,91.76 64,87 64,87 C64,87 54.94,97.13 52.81,104.06 C50.68,110.99 52.27,126.98 52.27,126.98 C52.27,126.98 57.07,112.05 62.93,106.19 C68.79,100.33 75.19,90.19 75.19,90.19 C78.1432406,95.0042755 80.8144041,99.9859954 83.19,105.11 C87.45,114.18 90.12,127.5 90.12,127.5 C90.12,127.5 97.05,112.58 96.52,105.11 C95.99,97.64 88,84.33 88,84.33 C88,84.33 93.33,80.6 101.32,83.8 C109.31,87 123.18,100.33 123.18,100.33 C123.18,100.33 119.98,82.74 114.65,75.81 C109.32,68.88 86.4,66.74 86.4,66.74 C86.4,66.74 99.19,59.28 107.19,57.68 C115.19,56.08 125.85,59.81 125.85,59.81 C125.85,59.81 113.58,42.81 103.99,41.69 C94.4,40.57 79.99,55.55 79.99,55.55 C79.99,55.55 83.19,39.55 84.26,34.23 C85.33,28.91 83.19,15.57 83.19,15.57 C83.19,15.57 77.33,18.77 70.4,28.9 C66.2919076,34.7927059 64.7510052,42.1002638 66.13,49.15 Z"/><path fill="#000" fill-rule="nonzero" d="M66.13,49.15 C66.13,49.15 61.87,38.49 54.4,31 C46.93,23.51 16.56,18.74 16.56,18.74 C21.4643857,23.4742568 25.9231489,28.6493679 29.88,34.2 C36.81,43.79 59.74,65.65 59.74,65.65 C59.74,65.65 48.54,56.05 38.41,54.99 C28.28,53.93 2.7,59.25 1.1,59.25 C-0.5,59.25 10.69,63.52 18.69,67.25 C26.69,70.98 57.6,74.18 57.6,74.18 C57.6,74.18 44.28,77.91 35.21,81.11 C26.14,84.31 17.62,107.76 17.62,107.76 C17.62,107.76 29.35,97.1 39.48,94.43 C49.61,91.76 64,87 64,87 C64,87 54.94,97.13 52.81,104.06 C50.68,110.99 52.27,126.98 52.27,126.98 C52.27,126.98 57.07,112.05 62.93,106.19 C68.79,100.33 75.19,90.19 75.19,90.19 C78.1432406,95.0042755 80.8144041,99.9859954 83.19,105.11 C87.45,114.18 90.12,127.5 90.12,127.5 C90.12,127.5 97.05,112.58 96.52,105.11 C95.99,97.64 88,84.33 88,84.33 C88,84.33 93.33,80.6 101.32,83.8 C109.31,87 123.18,100.33 123.18,100.33 C123.18,100.33 119.98,82.74 114.65,75.81 C109.32,68.88 86.4,66.74 86.4,66.74 C86.4,66.74 99.19,59.28 107.19,57.68 C115.19,56.08 125.85,59.81 125.85,59.81 C125.85,59.81 113.58,42.81 103.99,41.69 C94.4,40.57 79.99,55.55 79.99,55.55 C79.99,55.55 83.19,39.55 84.26,34.23 C85.33,28.91 83.19,15.57 83.19,15.57 C83.19,15.57 77.33,18.77 70.4,28.9 C66.2919076,34.7927059 64.7510052,42.1002638 66.13,49.15 Z" opacity=".5"/><path stroke="#263238" stroke-linecap="round" stroke-linejoin="round" stroke-width=".5" d="M76.63 32.93C77 31.39 77.41 29.87 77.86 28.36M41 32.92C46 36.57 52.23 41.58 55.44 45.92 61.3 53.92 73.03 70.98 73.03 70.98 72.6966321 59.5255541 73.6052674 48.0687025 75.74 36.81M33.62 27.83C33.62 27.83 35.17 28.83 37.5 30.42M73.06 71C73.06 71 93.32 50.74 101.85 49.14 110.38 47.54 117.85 53.94 117.85 53.94M36.86 88C31.93 91.14 31.48 92.91 31.48 92.91M117.31 89.67C117.31 89.67 114.11 81.67 102.91 77.94 91.71 74.21 74.13 73.67 74.13 73.67 74.13 73.67 49.46 81.75 40.44 85.96M63.36 70.63C69.36 72.36 74.13 73.63 74.13 73.63M25.81 61.16C31.6 61.51 39.06 62.3 43.21 64.08 46.59 65.53 53.26 67.63 59.54 69.5M17.62 60.88C17.62 60.88 19.57 60.88 22.45 60.99"/><path stroke="#263238" stroke-linecap="round" stroke-linejoin="round" stroke-width=".5" d="M73.06 76.87C73.06 76.87 58.14 99.26 57.06 104.59 56.4185892 107.751818 56.0605035 110.96455 55.99 114.19M79.7 83.92C82.57 87.63 86.02 92.57 87.45 96.6 89.1357345 101.452857 90.3873141 106.445789 91.19 111.52M75.19 78.47C75.19 78.47 76.38 79.79 78.03 81.82"/><path fill="#D70057" fill-rule="nonzero" d="M59.36,53.75 C59.36,53.75 56.6,42.6 58.31,32.18 C60.02,21.76 81.91,0.18 81.91,0.18 C80.6826284,6.88656804 80.0767264,13.6920858 80.1,20.51 C80.1,32.35 74.19,63.51 74.19,63.51 C74.19,63.51 77.69,49.18 85.3,42.41 C92.91,35.64 116.79,25 118.09,24 C119.39,23 112.79,33.06 108.47,40.76 C104.15,48.46 80.9,69.08 80.9,69.08 C80.9,69.08 93.9,64.34 103.13,61.65 C112.36,58.96 133,73.08 133,73.08 C133,73.08 117.26,71.26 107.48,75 C97.7,78.74 83.21,83.24 83.21,83.24 C83.21,83.24 96.48,86.19 102.21,90.57 C107.94,94.95 116,108.88 116,108.88 C116,108.88 103.4,99.55 95.22,98.21 C87.04,96.87 75.93,92.37 75.93,92.37 C76.345994,98.0042201 77.0838653,103.610039 78.14,109.16 C79.96,119.01 85.57,131.39 85.57,131.39 C85.57,131.39 71.24,123.31 67.32,116.93 C63.4,110.55 62.12,95.07 62.12,95.07 C62.12,95.07 55.61,95.15 50.98,102.41 C46.35,109.67 42.87,128.58 42.87,128.58 C42.87,128.58 35.2,112.43 35.49,103.69 C35.78,94.95 53.16,79.85 53.16,79.85 C53.16,79.85 38.41,81.25 30.98,84.61 C23.55,87.97 17.07,97.23 17.07,97.23 C17.07,97.23 17.07,76.23 24.25,69.76 C31.43,63.29 51.83,67 51.83,67 L35.93,52.16 C31.93,48.46 25.93,36.39 25.93,36.39 C25.93,36.39 32.55,35.56 44.09,39.75 C50.8694045,42.1503495 56.3814719,47.2039803 59.36,53.75 Z"/><path stroke="#263238" stroke-linecap="round" stroke-linejoin="round" stroke-width=".5" d="M41.37 46.69C40.17 45.6566667 38.95 44.6566667 37.71 43.69M70.28 25.92C68.35 31.79 66.21 39.5 66.15 44.92 66.05 54.83 66.48 75.53 66.48 75.53 60.0726921 66.0280389 52.6525348 57.2499224 44.35 49.35M73.34 17.46C73.34 17.46 72.64 19.17 71.69 21.83M66.48 75.54C66.48 75.54 38.21 70.9 30.35 74.54 22.49 78.18 20.16 87.76 20.16 87.76M105.77 68.18C111.61 67.86 113 69.04 113 69.04M41.42 116.5C41.42 116.5 39.36 108.14 46.27 98.58 53.18 89.02 67.17 78.33 67.17 78.33 67.17 78.33 91.91 70.5 101.7 68.66M74.14 69.58C70.31 74.46 67.14 78.33 67.14 78.33M99.12 40C94.61 43.66 89.02 48.65 86.68 52.52 84.78 55.67 80.6 61.27 76.59 66.45M105.6 35C105.6 35 104.02 36.13 101.75 37.9"/><path stroke="#263238" stroke-linecap="round" stroke-linejoin="round" stroke-width=".5" d="M69.9 80.3C69.9 80.3 95.08 89.78 99.06 93.49 101.419488 95.685876 103.58116 98.0851304 105.52 100.66M68.62 89.89C68.45 94.59 68.53 100.62 69.71 104.72 71.1756325 109.645636 73.0764546 114.431157 75.39 119.02M69.1 82.85C69.1 82.85 68.9 84.6 68.75 87.22"/></g><g transform="translate(161 166)"><path fill="#000" fill-rule="nonzero" d="M148.21,133.33 C146.29,127.92 145.95,99.54 146.38,79.33 L157.61,81.76 C159.559834,82.1822748 161.596716,81.8801195 163.34,80.91 C163.764052,80.6736434 164.165709,80.3991776 164.54,80.09 C164.906237,79.7912795 165.241279,79.4562367 165.54,79.09 C166.604248,77.9125952 167.299638,76.4487997 167.54,74.88 C167.581425,74.6016023 167.608129,74.3212124 167.62,74.04 C167.696601,72.4180679 167.289355,70.8099693 166.45,69.42 C166.177564,68.9678729 165.862818,68.5426317 165.51,68.15 C164.229281,66.7286341 162.492865,65.7985373 160.6,65.52 L147.04,63.52 C147.16,61.76 147.3,60.39 147.44,59.52 C147.682668,58.2012201 147.783243,56.8602232 147.74,55.52 L148.67,52.52 C150.04,48.13 149,41.67 145.27,38 C141.54,34.33 128.27,27.87 124.39,24.48 C120.51,21.09 91.46,0.4 86.25,1.62 C81.04,2.84 74.88,10.27 69.63,14.38 C64.38,18.49 45.47,34 45.47,34 C45.53,33.35 35.75,37.3 33.37,41.13 C33.007152,41.4772531 32.8198543,41.9693687 32.86,42.47 C33.4276078,44.6827704 35.0521488,46.4720113 37.2,47.25 L28.72,46 C27.7398572,45.8560201 26.7650287,46.2927432 26.22,47.12 C23.22,46.67 17.1,46 12.68,47.21 C12.68,47.21 19.89,50.74 25.28,51.92 C25.5695464,52.768433 26.2833474,53.402501 27.16,53.59 L38.41,56 C38.2035502,56.6533256 38.0497257,57.3221279 37.95,58 C37.8702793,58.6181029 37.9565682,59.2462862 38.2,59.82 C38.25,60.2 38.32,60.59 38.41,61 C40.01,67.8 48.65,76.06 54.95,81.52 C61.25,86.98 67.28,96.33 71.02,107.17 C74.76,118.01 77.1,128 85.42,139 C86.8355248,140.859058 88.3757392,142.61978 90.03,144.27 L167.6,193.27 C167.6,193.27 151,141.28 148.21,133.33 Z M47,48.05 C46.87,48.25 46.74,48.45 46.63,48.66 L44.49,48.34 C45.3324479,48.3025117 46.1711989,48.2056042 47,48.05 Z" opacity=".3"/><path fill="#FFF" fill-rule="nonzero" d="M122.16,219.91 L72.64,134.31 C72.64,134.31 67.1,95.42 55.29,79.77 C43.48,64.12 26.92,52.7 36.53,44.7 C46.14,36.7 70.53,21.4 75.53,22.38 C80.53,23.36 114.19,40.38 123.7,43.13 C133.21,45.88 136.54,49.92 135.12,58.13 C133.7,66.34 133.12,123.91 135.93,131.86 C138.74,139.81 170,196.47 170,196.47"/><g fill-rule="nonzero" transform="translate(125 47)"><path fill="#D70057" d="M11,84.88 C8.17,76.93 8.77,19.38 10.19,11.15 C11.06,6.15 10.14,2.66 7.11,0.15 C7.21832367,4.71063695 6.47564124,9.25151265 4.92,13.54 C2.25,21.11 0.92,26.45 0.92,26.45 C0.92,26.45 0.48,53.6 2.26,67.45 C4.04,81.3 12.94,105.73 21.4,119.09 C27.66,128.97 36.59,137.87 40.82,141.84 C32.12,126 13.12,91 11,84.88 Z"/><path fill="#FFF" d="M11,84.88 C8.17,76.93 8.77,19.38 10.19,11.15 C11.06,6.15 10.14,2.66 7.11,0.15 C7.21832367,4.71063695 6.47564124,9.25151265 4.92,13.54 C2.25,21.11 0.92,26.45 0.92,26.45 C0.92,26.45 0.48,53.6 2.26,67.45 C4.04,81.3 12.94,105.73 21.4,119.09 C27.66,128.97 36.59,137.87 40.82,141.84 C32.12,126 13.12,91 11,84.88 Z" opacity=".5"/></g><path stroke="#263238" stroke-linecap="round" d="M122.16,219.91 L72.64,134.31 C72.64,134.31 67.1,95.42 55.29,79.77 C43.48,64.12 26.92,52.7 36.53,44.7 C46.14,36.7 70.53,21.4 75.53,22.38 C80.53,23.36 114.19,40.38 123.7,43.13 C133.21,45.88 136.54,49.92 135.12,58.13 C133.7,66.34 133.12,123.91 135.93,131.86 C138.74,139.81 170,196.47 170,196.47"/><path fill="#D70057" fill-rule="nonzero" d="M23.48,46.24 C31.2468391,45.8109951 38.7660736,43.3562978 45.29,39.12 C56.42,32 52.86,30.66 52.86,30.66 C52.86,30.66 58.64,28.88 62.2,27.55 C65.1842784,26.2183468 68.0199337,24.5759459 70.66,22.65 C70.66,22.65 84.91,32 91.58,34.65 C94.774385,36.0066024 98.0630254,37.1295528 101.42,38.01 L110.73,50.23 C105.495675,52.6986169 101.032603,56.5463311 97.82,61.36 C92.48,69.36 85.82,80.05 82.68,81.36 C79.54,82.67 80.9,84.03 67.1,78.69 C53.3,73.35 22.59,54.26 23.48,46.24 Z"/><path fill="#FFF" fill-rule="nonzero" d="M23.48,46.24 C31.2468391,45.8109951 38.7660736,43.3562978 45.29,39.12 C56.42,32 52.86,30.66 52.86,30.66 C52.86,30.66 58.64,28.88 62.2,27.55 C65.1842784,26.2183468 68.0199337,24.5759459 70.66,22.65 C70.66,22.65 84.91,32 91.58,34.65 C94.774385,36.0066024 98.0630254,37.1295528 101.42,38.01 L110.73,50.23 C105.495675,52.6986169 101.032603,56.5463311 97.82,61.36 C92.48,69.36 85.82,80.05 82.68,81.36 C79.54,82.67 80.9,84.03 67.1,78.69 C53.3,73.35 22.59,54.26 23.48,46.24 Z" opacity=".5"/><path stroke="#263238" stroke-linecap="round" d="M48.14 50.35C48.14 50.35 58.84 49.03 66.38 35.3 66.38 35.3 75.26 39.06 84.5 36.65M77.15 40.42C77.15 40.42 71.99 54.08 82.87 72.15"/><path stroke="#263238" stroke-linecap="round" d="M65.72 41.67C65.72 41.67 71.11 48.3 71.99 54.08M75.81 78.54C75.81 78.54 84.81 72.85 89.6 66.93 94.39 61.01 96.55 54.77 104.1 52.28"/><line x1="66.38" x2="64.19" y1="35.3" y2="32.71" stroke="#263238" stroke-linecap="round"/><path fill="#263238" fill-rule="nonzero" stroke="#263238" stroke-linecap="round" d="M15.78,46 C15.78,46 6.48,44.12 0.42,45.78 C0.42,45.78 9.34,50.15 14.75,50.78 L15.78,46 Z"/><path fill="#D70057" fill-rule="nonzero" stroke="#263238" stroke-linecap="round" d="M148.3,64.14 L16.46,44.55 C15.1572793,44.3561737 13.9200697,45.1824221 13.6,46.46 L13,49 C12.8267222,49.673259 12.9358361,50.3880777 13.3020827,50.9789807 C13.6683293,51.5698837 14.259954,51.9856382 14.94,52.13 L145.39,80.33 C147.616777,80.8110508 149.943346,80.3487368 151.817033,79.0528809 C153.690719,77.7570249 154.944305,75.7432759 155.28,73.49 L155.28,73.49 C155.597178,71.3240608 155.039474,69.1209307 153.729955,67.3667767 C152.420437,65.6126226 150.466744,64.4516313 148.3,64.14 Z"/><path fill="#263238" fill-rule="nonzero" stroke="#263238" stroke-linecap="round" d="M148.3,64.14 L128.37,61.14 C124.635463,63.4034178 122.801514,67.8283758 123.84,72.07 C124.176234,73.5289436 124.831993,74.8951078 125.76,76.07 L145.35,80.3 C147.576777,80.7810508 149.903346,80.3187368 151.777033,79.0228809 C153.650719,77.7270249 154.904305,75.7132759 155.24,73.46 L155.24,73.46 C155.883745,68.9733376 152.782944,64.8091492 148.3,64.14 Z"/><path fill="#FFF" fill-rule="nonzero" d="M94.94,76.44 C94.94,76.44 83.6,79.1 78.53,77.9 C73.46,76.7 63.11,62.14 56,57.35 C48.89,52.56 44.56,51.42 37.12,50.3 C29.68,49.18 24.54,52.77 26.12,59.58 C27.7,66.39 36.35,74.64 42.66,80.1 C48.97,85.56 54.99,94.9 58.73,105.75 C62.47,116.6 64.81,126.57 73.13,137.53 C81.45,148.49 91.83,153 95.32,153.61"/><g fill-rule="nonzero" transform="translate(33 50)"><path fill="#D70057" d="M56.31,28.05 L55.51,27.64 C52.07,28.14 48.04,28.49 45.51,27.9 C40.45,26.7 30.09,12.14 22.99,7.35 C15.89,2.56 11.55,1.42 4.11,0.3 C2.92279086,0.115485975 1.71891645,0.0618314047 0.52,0.14 C6.25485094,1.57952599 11.6776184,4.05705286 16.52,7.45 C24.44,13.17 30.16,27.68 38.95,30.32 C47.74,32.96 56.31,28.05 56.31,28.05 Z"/><path fill="#FFF" d="M56.31,28.05 L55.51,27.64 C52.07,28.14 48.04,28.49 45.51,27.9 C40.45,26.7 30.09,12.14 22.99,7.35 C15.89,2.56 11.55,1.42 4.11,0.3 C2.92279086,0.115485975 1.71891645,0.0618314047 0.52,0.14 C6.25485094,1.57952599 11.6776184,4.05705286 16.52,7.45 C24.44,13.17 30.16,27.68 38.95,30.32 C47.74,32.96 56.31,28.05 56.31,28.05 Z" opacity=".5"/></g><path stroke="#263238" stroke-linecap="round" d="M94.94,76.44 C94.94,76.44 83.6,79.1 78.53,77.9 C73.46,76.7 63.11,62.14 56,57.35 C48.89,52.56 44.56,51.42 37.12,50.3 C29.68,49.18 24.54,52.77 26.12,59.58 C27.7,66.39 36.35,74.64 42.66,80.1 C48.97,85.56 54.99,94.9 58.73,105.75 C62.47,116.6 64.81,126.57 73.13,137.53 C81.45,148.49 91.83,153 95.32,153.61"/><path fill="#FFF" fill-rule="nonzero" stroke="#263238" stroke-linecap="round" d="M31.84,64.46 C31.84,64.46 32.38,58.59 40.42,53.12 C40.42,53.12 35.05,49.59 31.37,50.22 C27.69,50.85 26.24,52.86 25.68,56.58 C25.12,60.3 31.84,64.46 31.84,64.46 Z"/><path stroke="#263238" stroke-linecap="round" d="M37.12 70.69C37.7376934 71.3123683 38.429548 71.8564482 39.18 72.31M43 56.82C43 56.82 34.46 61.22 35.83 68.08"/><path fill="#FFF" fill-rule="nonzero" d="M135,55.55 L136.36,51.16 C137.72,46.78 136.69,40.32 132.96,36.65 C129.23,32.98 115.96,26.52 112.08,23.13 C108.2,19.74 79.16,-1 74,0.27 C68.84,1.54 62.63,8.92 57.37,13.02 C52.11,17.12 33.25,32.56 33.25,32.56 C33.25,32.56 20,38.3 20.6,41 C21.2,43.7 23.95,47.15 32.26,46.88 C40.57,46.61 54.42,38.33 56.52,37.11 C58.62,35.89 71.69,27.33 71.69,27.33 C75.0749822,30.6789396 78.9617181,33.4792788 83.21,35.63 C89.38,38.49 90.21,38.78 90.21,38.78 C90.21,38.78 91.82,44.63 96.35,47.63"/><g fill-rule="nonzero" transform="translate(23 17)"><path fill="#D70057" d="M104.64,19.89 C109.44,23.66 109.75,31.13 108.42,37.82 L112.01,38.55 L113.37,34.16 C114.73,29.78 113.7,23.32 109.97,19.65 C106.24,15.98 92.97,9.52 89.09,6.13 C88.09,5.25 85.33,3.18 81.76,0.64 L81.05,0.75 C81.05,0.75 98.41,15 104.64,19.89 Z"/><path fill="#FFF" d="M104.64,19.89 C109.44,23.66 109.75,31.13 108.42,37.82 L112.01,38.55 L113.37,34.16 C114.73,29.78 113.7,23.32 109.97,19.65 C106.24,15.98 92.97,9.52 89.09,6.13 C88.09,5.25 85.33,3.18 81.76,0.64 L81.05,0.75 C81.05,0.75 98.41,15 104.64,19.89 Z" opacity=".5"/><path fill="#D70057" d="M0.48,29.24 C8.24683908,28.8109951 15.7660736,26.3562978 22.29,22.12 C33.42,15 29.86,13.66 29.86,13.66 C29.86,13.66 35.64,11.88 39.2,10.55 C42.1842784,9.21834675 45.0199337,7.57594592 47.66,5.65 C47.66,5.65 61.91,15 68.58,17.65 C71.774385,19.0066024 75.0630254,20.1295528 78.42,21.01 L87.73,33.23 C82.4956751,35.6986169 78.0326031,39.5463311 74.82,44.36 C69.48,52.36 62.82,63.05 59.68,64.36 C56.54,65.67 57.9,67.03 44.1,61.69 C30.3,56.35 -0.41,37.26 0.48,29.24 Z"/><path fill="#FFF" d="M0.48,29.24 C8.24683908,28.8109951 15.7660736,26.3562978 22.29,22.12 C33.42,15 29.86,13.66 29.86,13.66 C29.86,13.66 35.64,11.88 39.2,10.55 C42.1842784,9.21834675 45.0199337,7.57594592 47.66,5.65 C47.66,5.65 61.91,15 68.58,17.65 C71.774385,19.0066024 75.0630254,20.1295528 78.42,21.01 L87.73,33.23 C82.4956751,35.6986169 78.0326031,39.5463311 74.82,44.36 C69.48,52.36 62.82,63.05 59.68,64.36 C56.54,65.67 57.9,67.03 44.1,61.69 C30.3,56.35 -0.41,37.26 0.48,29.24 Z" opacity=".5"/></g><path stroke="#263238" stroke-linecap="round" d="M135,55.55 L136.36,51.16 C137.72,46.78 136.69,40.32 132.96,36.65 C129.23,32.98 115.96,26.52 112.08,23.13 C108.2,19.74 79.16,-1 74,0.27 C68.84,1.54 62.63,8.92 57.37,13.02 C52.11,17.12 33.25,32.56 33.25,32.56 C33.25,32.56 20,38.3 20.6,41 C21.2,43.7 23.95,47.15 32.26,46.88 C40.57,46.61 54.42,38.33 56.52,37.11 C58.62,35.89 71.69,27.33 71.69,27.33 C75.0749822,30.6789396 78.9617181,33.4792788 83.21,35.63 C89.38,38.49 90.21,38.78 90.21,38.78 C90.21,38.78 91.82,44.63 96.35,47.63"/><path fill="#FFF" fill-rule="nonzero" stroke="#263238" stroke-linecap="round" d="M20.6,41 C20.6,41 21.94,41.64 24.78,40.5 C27.62,39.36 33.14,33.28 33.2,32.5 C33.26,31.72 21.05,36.85 20.6,41 Z"/><path stroke="#263238" stroke-linecap="round" d="M71.16 17.65C71.286346 17.0523629 71.4432181 16.4615891 71.63 15.88M71.69 27.35C70.9276747 24.9484159 70.6389975 22.4216417 70.84 19.91"/></g></g></svg>